<svg width="87" height="84" viewBox="0 0 87 84" fill="none" xmlns="http://www.w3.org/2000/svg">
<rect x="4" y="57" width="69" height="16" fill="#2C49D8"/>
<path d="M4.608 65V18.28H14.4L27.392 56.04C27.264 54.6747 27.136 53.0747 27.008 51.24C26.88 49.3627 26.752 47.464 26.624 45.544C26.5387 43.624 26.496 41.9173 26.496 40.424V18.28H33.792V65H24L11.136 27.24C11.2213 28.4773 11.328 29.9707 11.456 31.72C11.584 33.4693 11.6907 35.2613 11.776 37.096C11.8613 38.9307 11.904 40.616 11.904 42.152V65H4.608ZM57.767 65.64C54.6097 65.64 51.8363 65.0853 49.447 63.976C47.1003 62.8667 45.2657 61.288 43.943 59.24C42.663 57.1493 42.023 54.6747 42.023 51.816H49.895C49.895 53.9067 50.599 55.5707 52.007 56.808C53.4577 58.0453 55.3777 58.664 57.767 58.664C60.071 58.664 61.8843 58.0667 63.207 56.872C64.5723 55.6347 65.255 53.992 65.255 51.944C65.255 50.408 64.807 49.064 63.911 47.912C63.0577 46.7173 61.8203 45.9067 60.199 45.48L53.927 43.88C50.5563 43.0267 47.8897 41.4267 45.927 39.08C43.9643 36.7333 42.983 33.9387 42.983 30.696C42.983 26.728 44.2843 23.5707 46.887 21.224C49.4897 18.8347 52.967 17.64 57.319 17.64C60.263 17.64 62.823 18.1733 64.999 19.24C67.2177 20.3067 68.9243 21.8213 70.119 23.784C71.3137 25.704 71.911 27.9653 71.911 30.568H64.103C64.103 28.776 63.4843 27.3253 62.247 26.216C61.0097 25.1067 59.367 24.552 57.319 24.552C55.3137 24.552 53.7137 25.1067 52.519 26.216C51.367 27.2827 50.791 28.6907 50.791 30.44C50.791 31.8907 51.1963 33.0853 52.007 34.024C52.8603 34.9627 54.0337 35.6453 55.527 36.072L61.991 37.672C65.447 38.5253 68.1563 40.232 70.119 42.792C72.1243 45.352 73.127 48.4027 73.127 51.944C73.127 54.7173 72.487 57.128 71.207 59.176C69.9697 61.224 68.199 62.824 65.895 63.976C63.591 65.0853 60.8817 65.64 57.767 65.64Z" fill="white"/>
</svg>
